ffmpeg started on 2025-06-06 at 18:29:56
Report written to "D:\Convert\FFMetrics\reports\psnr_report-6.txt"
Log level: 32
Command line:
ffmpeg -hide_banner -nostdin -i "G:\\\xc0\xed\xe8\xec\xe5\\\xce\xed\xe3\xee\xe8\xed\xe3\xe8\\!_36_\xce\xf1\xe5\xed\xfc_2024\\DreamCast\\\xcf\xf0\xee\xf9\xe0\xe9, \xe6\xe8\xe7\xed\xfc \xe4\xf0\xe0\xea\xee\xed\xe0. \xc7\xe4\xf0\xe0\xe2\xf1\xf2\xe2\xf3\xe9, \xe6\xe8\xe7\xed\xfc \xf7\xe5\xeb\xee\xe2\xe5\xea\xe0\\[DC] Sayonara Ryuusei Konnichiwa Jinsei - 10_Telegram_HEVC.mkv" -i "G:\\\xc0\xed\xe8\xec\xe5\\\xce\xed\xe3\xee\xe8\xed\xe3\xe8\\!_36_\xce\xf1\xe5\xed\xfc_2024\\DreamCast\\\xcf\xf0\xee\xf9\xe0\xe9, \xe6\xe8\xe7\xed\xfc \xe4\xf0\xe0\xea\xee\xed\xe0. \xc7\xe4\xf0\xe0\xe2\xf1\xf2\xe2\xf3\xe9, \xe6\xe8\xe7\xed\xfc \xf7\xe5\xeb\xee\xe2\xe5\xea\xe0\\[DC] Sayonara Ryuusei Konnichiwa Jinsei - 10_Telegram.mp4" -lavfi "[0:v]settb=AVTB,setpts=PTS-STARTPTS,format=pix_fmts=yuv420p10,fps=24000/1001,scale=1920:1080:flags=bicubic[main];[1:v]settb=AVTB,setpts=PTS-STARTPTS,format=pix_fmts=yuv420p,fps=24000/1001,scale=1920:1080:flags=bicubic[ref];[main][ref]psnr=eof_action=endall:stats_file='D\\:/Convert/FFMetrics/logs/psnr_logfile-6.txt'" -f null -
Input #0, matroska,webm, from 'G:\Аниме\Онгоинги\!_36_Осень_2024\DreamCast\Прощай, жизнь дракона. Здравствуй, жизнь человека\[DC] Sayonara Ryuusei Konnichiwa Jinsei - 10_Telegram_HEVC.mkv':
  Metadata:
    COMPATIBLE_BRANDS: isomiso2avc1mp41
    MAJOR_BRAND     : isom
    MINOR_VERSION   : 512
    ENCODER         : Lavf61.7.100
  Duration: 00:24:16.68, start: -0.021000, bitrate: 1257 kb/s
  Stream #0:0: Video: hevc (Main 10), yuv420p10le(tv, bt709, progressive), 1920x1080 [SAR 1:1 DAR 16:9], 23.98 fps, 23.98 tbr, 1k tbn (default)
      Metadata:
        HANDLER_NAME    : VideoHandler
        VENDOR_ID       : [0][0][0][0]
        ENCODER         : Lavc61.19.100 libx265
        BPS             : 1060295
        DURATION        : 00:24:16.538708333
        NUMBER_OF_FRAMES: 34922
        NUMBER_OF_BYTES : 193045102
        _STATISTICS_WRITING_APP: mkvpropedit v66.0.0 ('Josie') 64-bit
        _STATISTICS_WRITING_DATE_UTC: 2025-06-03 10:59:56
        _STATISTICS_TAGS: BPS DURATION NUMBER_OF_FRAMES NUMBER_OF_BYTES
  Stream #0:1: Audio: aac (LC), 48000 Hz, stereo, fltp (default)
      Metadata:
        HANDLER_NAME    : SoundHandler
        VENDOR_ID       : [0][0][0][0]
        ENCODER         : Lavc61.19.100 aac
        BPS             : 193623
        DURATION        : 00:24:16.682000000
        NUMBER_OF_FRAMES: 68283
        NUMBER_OF_BYTES : 35255998
        _STATISTICS_WRITING_APP: mkvpropedit v66.0.0 ('Josie') 64-bit
        _STATISTICS_WRITING_DATE_UTC: 2025-06-03 10:59:56
        _STATISTICS_TAGS: BPS DURATION NUMBER_OF_FRAMES NUMBER_OF_BYTES
Input #1, mov,mp4,m4a,3gp,3g2,mj2, from 'G:\Аниме\Онгоинги\!_36_Осень_2024\DreamCast\Прощай, жизнь дракона. Здравствуй, жизнь человека\[DC] Sayonara Ryuusei Konnichiwa Jinsei - 10_Telegram.mp4':
  Metadata:
    major_brand     : isom
    minor_version   : 512
    compatible_brands: isomiso2avc1mp41
    encoder         : Lavf61.1.100
  Duration: 00:24:16.65, start: 0.000000, bitrate: 3589 kb/s
  Stream #1:0[0x1](und): Video: h264 (High) (avc1 / 0x31637661), yuv420p(tv, bt709, progressive), 1920x1080 [SAR 1:1 DAR 16:9], 3442 kb/s, 23.98 fps, 23.98 tbr, 24k tbn (default)
      Metadata:
        handler_name    : VideoHandler
        vendor_id       : [0][0][0][0]
        encoder         : Lavc61.3.100 h264_qsv
  Stream #1:1[0x2](und): Audio: aac (HE-AACv2) (mp4a / 0x6134706D), 48000 Hz, stereo, fltp, 144 kb/s (default)
      Metadata:
        handler_name    : SoundHandler
        vendor_id       : [0][0][0][0]
Stream mapping:
  Stream #0:0 (hevc) -> settb:default
  Stream #1:0 (h264) -> settb:default
  psnr:default -> Stream #0:0 (wrapped_avframe)
  Stream #0:1 -> #0:1 (aac (native) -> pcm_s16le (native))
Output #0, null, to 'pipe:':
  Metadata:
    COMPATIBLE_BRANDS: isomiso2avc1mp41
    MAJOR_BRAND     : isom
    MINOR_VERSION   : 512
    encoder         : Lavf61.7.100
  Stream #0:0: Video: wrapped_avframe, yuv420p10le(tv, bt709, progressive), 1920x1080 [SAR 1:1 DAR 16:9], q=2-31, 200 kb/s, 23.98 fps, 23.98 tbn
      Metadata:
        encoder         : Lavc61.19.100 wrapped_avframe
  Stream #0:1: Audio: pcm_s16le, 48000 Hz, stereo, s16, 1536 kb/s (default)
      Metadata:
        HANDLER_NAME    : SoundHandler
        VENDOR_ID       : [0][0][0][0]
        _STATISTICS_TAGS: BPS DURATION NUMBER_OF_FRAMES NUMBER_OF_BYTES
        BPS             : 193623
        DURATION        : 00:24:16.682000000
        NUMBER_OF_FRAMES: 68283
        NUMBER_OF_BYTES : 35255998
        _STATISTICS_WRITING_APP: mkvpropedit v66.0.0 ('Josie') 64-bit
        _STATISTICS_WRITING_DATE_UTC: 2025-06-03 10:59:56
        encoder         : Lavc61.19.100 pcm_s16le
frame=  183 fps=0.0 q=-0.0 size=N/A time=00:00:07.63 bitrate=N/A speed=14.8x    frame=  403 fps=394 q=-0.0 size=N/A time=00:00:16.80 bitrate=N/A speed=16.4x    frame=  641 fps=414 q=-0.0 size=N/A time=00:00:26.73 bitrate=N/A speed=17.3x    frame=  895 fps=434 q=-0.0 size=N/A time=00:00:37.32 bitrate=N/A speed=18.1x    frame= 1114 fps=433 q=-0.0 size=N/A time=00:00:46.46 bitrate=N/A speed=18.1x    frame= 1315 fps=425 q=-0.0 size=N/A time=00:00:54.84 bitrate=N/A speed=17.7x    frame= 1507 fps=417 q=-0.0 size=N/A time=00:01:02.85 bitrate=N/A speed=17.4x    frame= 1703 fps=413 q=-0.0 size=N/A time=00:01:11.02 bitrate=N/A speed=17.2x    frame= 1903 fps=410 q=-0.0 size=N/A time=00:01:19.37 bitrate=N/A speed=17.1x    frame= 2093 fps=406 q=-0.0 size=N/A time=00:01:27.29 bitrate=N/A speed=16.9x    frame= 2292 fps=405 q=-0.0 size=N/A time=00:01:35.59 bitrate=N/A speed=16.9x    frame= 2516 fps=406 q=-0.0 size=N/A time=00:01:44.93 bitrate=N/A speed=16.9x    frame= 2718 fps=405 q=-0.0 size=N/A time=00:01:53.36 bitrate=N/A speed=16.9x    frame= 2979 fps=413 q=-0.0 size=N/A time=00:02:04.24 bitrate=N/A speed=17.2x    frame= 3251 fps=420 q=-0.0 size=N/A time=00:02:15.59 bitrate=N/A speed=17.5x    frame= 3527 fps=427 q=-0.0 size=N/A time=00:02:27.10 bitrate=N/A speed=17.8x    frame= 3796 fps=433 q=-0.0 size=N/A time=00:02:38.32 bitrate=N/A speed=18.1x    frame= 4067 fps=438 q=-0.0 size=N/A time=00:02:49.62 bitrate=N/A speed=18.3x    frame= 4337 fps=443 q=-0.0 size=N/A time=00:03:00.88 bitrate=N/A speed=18.5x    frame= 4539 fps=440 q=-0.0 size=N/A time=00:03:09.31 bitrate=N/A speed=18.4x    frame= 4769 fps=440 q=-0.0 size=N/A time=00:03:18.90 bitrate=N/A speed=18.4x    frame= 5002 fps=441 q=-0.0 size=N/A time=00:03:28.62 bitrate=N/A speed=18.4x    frame= 5239 fps=442 q=-0.0 size=N/A time=00:03:38.50 bitrate=N/A speed=18.4x    frame= 5482 fps=443 q=-0.0 size=N/A time=00:03:48.64 bitrate=N/A speed=18.5x    frame= 5732 fps=445 q=-0.0 size=N/A time=00:03:59.07 bitrate=N/A speed=18.5x    frame= 5994 fps=447 q=-0.0 size=N/A time=00:04:09.99 bitrate=N/A speed=18.6x    frame= 6240 fps=448 q=-0.0 size=N/A time=00:04:20.26 bitrate=N/A speed=18.7x    frame= 6486 fps=449 q=-0.0 size=N/A time=00:04:30.52 bitrate=N/A speed=18.7x    frame= 6687 fps=447 q=-0.0 size=N/A time=00:04:38.90 bitrate=N/A speed=18.7x    frame= 6907 fps=447 q=-0.0 size=N/A time=00:04:48.07 bitrate=N/A speed=18.6x    frame= 7137 fps=447 q=-0.0 size=N/A time=00:04:57.67 bitrate=N/A speed=18.6x    frame= 7332 fps=444 q=-0.0 size=N/A time=00:05:05.80 bitrate=N/A speed=18.5x    frame= 7539 fps=443 q=-0.0 size=N/A time=00:05:14.43 bitrate=N/A speed=18.5x    frame= 7771 fps=443 q=-0.0 size=N/A time=00:05:24.11 bitrate=N/A speed=18.5x    frame= 8047 fps=446 q=-0.0 size=N/A time=00:05:35.62 bitrate=N/A speed=18.6x    frame= 8307 fps=448 q=-0.0 size=N/A time=00:05:46.47 bitrate=N/A speed=18.7x    frame= 8559 fps=449 q=-0.0 size=N/A time=00:05:56.98 bitrate=N/A speed=18.7x    frame= 8784 fps=448 q=-0.0 size=N/A time=00:06:06.36 bitrate=N/A speed=18.7x    frame= 9027 fps=449 q=-0.0 size=N/A time=00:06:16.50 bitrate=N/A speed=18.7x    frame= 9258 fps=449 q=-0.0 size=N/A time=00:06:26.13 bitrate=N/A speed=18.7x    frame= 9465 fps=448 q=-0.0 size=N/A time=00:06:34.76 bitrate=N/A speed=18.7x    frame= 9713 fps=448 q=-0.0 size=N/A time=00:06:45.11 bitrate=N/A speed=18.7x    frame= 9968 fps=450 q=-0.0 size=N/A time=00:06:55.74 bitrate=N/A speed=18.7x    frame=10230 fps=451 q=-0.0 size=N/A time=00:07:06.67 bitrate=N/A speed=18.8x    frame=10472 fps=451 q=-0.0 size=N/A time=00:07:16.76 bitrate=N/A speed=18.8x    frame=10713 fps=452 q=-0.0 size=N/A time=00:07:26.82 bitrate=N/A speed=18.8x    frame=10969 fps=453 q=-0.0 size=N/A time=00:07:37.49 bitrate=N/A speed=18.9x    frame=11204 fps=453 q=-0.0 size=N/A time=00:07:47.30 bitrate=N/A speed=18.9x    frame=11471 fps=454 q=-0.0 size=N/A time=00:07:58.43 bitrate=N/A speed=18.9x    frame=11666 fps=452 q=-0.0 size=N/A time=00:08:06.56 bitrate=N/A speed=18.9x    frame=11890 fps=452 q=-0.0 size=N/A time=00:08:15.91 bitrate=N/A speed=18.9x    frame=12125 fps=452 q=-0.0 size=N/A time=00:08:25.71 bitrate=N/A speed=18.9x    frame=12324 fps=451 q=-0.0 size=N/A time=00:08:34.01 bitrate=N/A speed=18.8x    frame=12586 fps=452 q=-0.0 size=N/A time=00:08:44.94 bitrate=N/A speed=18.9x    frame=12771 fps=450 q=-0.0 size=N/A time=00:08:52.65 bitrate=N/A speed=18.8x    frame=13054 fps=452 q=-0.0 size=N/A time=00:09:04.46 bitrate=N/A speed=18.9x    frame=13332 fps=454 q=-0.0 size=N/A time=00:09:16.05 bitrate=N/A speed=18.9x    frame=13586 fps=454 q=-0.0 size=N/A time=00:09:26.64 bitrate=N/A speed=18.9x    frame=13857 fps=456 q=-0.0 size=N/A time=00:09:37.95 bitrate=N/A speed=  19x    frame=14091 fps=455 q=-0.0 size=N/A time=00:09:47.71 bitrate=N/A speed=  19x    frame=14381 fps=457 q=-0.0 size=N/A time=00:09:59.80 bitrate=N/A speed=19.1x    frame=14638 fps=458 q=-0.0 size=N/A time=00:10:10.52 bitrate=N/A speed=19.1x    frame=14910 fps=459 q=-0.0 size=N/A time=00:10:21.87 bitrate=N/A speed=19.1x    frame=15126 fps=458 q=-0.0 size=N/A time=00:10:30.88 bitrate=N/A speed=19.1x    frame=15317 fps=457 q=-0.0 size=N/A time=00:10:38.84 bitrate=N/A speed=19.1x    frame=15533 fps=456 q=-0.0 size=N/A time=00:10:47.85 bitrate=N/A speed=  19x    frame=15788 fps=457 q=-0.0 size=N/A time=00:10:58.49 bitrate=N/A speed=19.1x    frame=16019 fps=457 q=-0.0 size=N/A time=00:11:08.12 bitrate=N/A speed=19.1x    frame=16294 fps=458 q=-0.0 size=N/A time=00:11:19.59 bitrate=N/A speed=19.1x    frame=16570 fps=459 q=-0.0 size=N/A time=00:11:31.10 bitrate=N/A speed=19.2x    frame=16852 fps=460 q=-0.0 size=N/A time=00:11:42.86 bitrate=N/A speed=19.2x    frame=17128 fps=461 q=-0.0 size=N/A time=00:11:54.38 bitrate=N/A speed=19.2x    frame=17390 fps=462 q=-0.0 size=N/A time=00:12:05.30 bitrate=N/A speed=19.3x    frame=17637 fps=462 q=-0.0 size=N/A time=00:12:15.60 bitrate=N/A speed=19.3x    frame=17887 fps=463 q=-0.0 size=N/A time=00:12:26.03 bitrate=N/A speed=19.3x    frame=18159 fps=463 q=-0.0 size=N/A time=00:12:37.38 bitrate=N/A speed=19.3x    frame=18445 fps=465 q=-0.0 size=N/A time=00:12:49.31 bitrate=N/A speed=19.4x    frame=18720 fps=465 q=-0.0 size=N/A time=00:13:00.78 bitrate=N/A speed=19.4x    frame=18932 fps=465 q=-0.0 size=N/A time=00:13:09.62 bitrate=N/A speed=19.4x    frame=19155 fps=464 q=-0.0 size=N/A time=00:13:18.92 bitrate=N/A speed=19.4x    frame=19318 fps=463 q=-0.0 size=N/A time=00:13:25.72 bitrate=N/A speed=19.3x    frame=19539 fps=462 q=-0.0 size=N/A time=00:13:34.93 bitrate=N/A speed=19.3x    frame=19771 fps=462 q=-0.0 size=N/A time=00:13:44.61 bitrate=N/A speed=19.3x    frame=20019 fps=462 q=-0.0 size=N/A time=00:13:54.95 bitrate=N/A speed=19.3x    frame=20223 fps=461 q=-0.0 size=N/A time=00:14:03.46 bitrate=N/A speed=19.2x    frame=20416 fps=460 q=-0.0 size=N/A time=00:14:11.51 bitrate=N/A speed=19.2x    frame=20618 fps=460 q=-0.0 size=N/A time=00:14:19.94 bitrate=N/A speed=19.2x    frame=20840 fps=459 q=-0.0 size=N/A time=00:14:29.20 bitrate=N/A speed=19.2x    frame=21119 fps=460 q=-0.0 size=N/A time=00:14:40.83 bitrate=N/A speed=19.2x    frame=21409 fps=461 q=-0.0 size=N/A time=00:14:52.93 bitrate=N/A speed=19.2x    frame=21672 fps=462 q=-0.0 size=N/A time=00:15:03.90 bitrate=N/A speed=19.3x    frame=21933 fps=462 q=-0.0 size=N/A time=00:15:14.78 bitrate=N/A speed=19.3x    frame=22203 fps=463 q=-0.0 size=N/A time=00:15:26.05 bitrate=N/A speed=19.3x    frame=22474 fps=464 q=-0.0 size=N/A time=00:15:37.35 bitrate=N/A speed=19.3x    frame=22721 fps=464 q=-0.0 size=N/A time=00:15:47.65 bitrate=N/A speed=19.3x    frame=22964 fps=464 q=-0.0 size=N/A time=00:15:57.79 bitrate=N/A speed=19.3x    frame=23222 fps=464 q=-0.0 size=N/A time=00:16:08.55 bitrate=N/A speed=19.4x    frame=23444 fps=464 q=-0.0 size=N/A time=00:16:17.81 bitrate=N/A speed=19.4x    frame=23653 fps=463 q=-0.0 size=N/A time=00:16:26.52 bitrate=N/A speed=19.3x    frame=23882 fps=463 q=-0.0 size=N/A time=00:16:36.07 bitrate=N/A speed=19.3x    frame=24171 fps=464 q=-0.0 size=N/A time=00:16:48.13 bitrate=N/A speed=19.4x    frame=24418 fps=464 q=-0.0 size=N/A time=00:16:58.43 bitrate=N/A speed=19.4x    frame=24682 fps=465 q=-0.0 size=N/A time=00:17:09.44 bitrate=N/A speed=19.4x    frame=24950 fps=465 q=-0.0 size=N/A time=00:17:20.62 bitrate=N/A speed=19.4x    frame=25216 fps=466 q=-0.0 size=N/A time=00:17:31.71 bitrate=N/A speed=19.4x    frame=25496 fps=466 q=-0.0 size=N/A time=00:17:43.39 bitrate=N/A speed=19.5x    frame=25734 fps=466 q=-0.0 size=N/A time=00:17:53.32 bitrate=N/A speed=19.5x    frame=25969 fps=466 q=-0.0 size=N/A time=00:18:03.12 bitrate=N/A speed=19.4x    frame=26203 fps=466 q=-0.0 size=N/A time=00:18:12.88 bitrate=N/A speed=19.4x    frame=26453 fps=466 q=-0.0 size=N/A time=00:18:23.35 bitrate=N/A speed=19.5x    frame=26685 fps=466 q=-0.0 size=N/A time=00:18:32.98 bitrate=N/A speed=19.4x    frame=26918 fps=466 q=-0.0 size=N/A time=00:18:42.70 bitrate=N/A speed=19.4x    frame=27178 fps=466 q=-0.0 size=N/A time=00:18:53.54 bitrate=N/A speed=19.5x    frame=27434 fps=467 q=-0.0 size=N/A time=00:19:04.22 bitrate=N/A speed=19.5x    frame=27709 fps=467 q=-0.0 size=N/A time=00:19:15.69 bitrate=N/A speed=19.5x    frame=27972 fps=468 q=-0.0 size=N/A time=00:19:26.66 bitrate=N/A speed=19.5x    frame=28223 fps=468 q=-0.0 size=N/A time=00:19:37.13 bitrate=N/A speed=19.5x    frame=28498 fps=468 q=-0.0 size=N/A time=00:19:48.60 bitrate=N/A speed=19.5x    frame=28764 fps=469 q=-0.0 size=N/A time=00:19:59.69 bitrate=N/A speed=19.5x    frame=29025 fps=469 q=-0.0 size=N/A time=00:20:10.58 bitrate=N/A speed=19.6x    frame=29301 fps=470 q=-0.0 size=N/A time=00:20:22.09 bitrate=N/A speed=19.6x    frame=29576 fps=470 q=-0.0 size=N/A time=00:20:33.56 bitrate=N/A speed=19.6x    frame=29852 fps=471 q=-0.0 size=N/A time=00:20:45.07 bitrate=N/A speed=19.6x    frame=30139 fps=471 q=-0.0 size=N/A time=00:20:57.04 bitrate=N/A speed=19.7x    frame=30423 fps=472 q=-0.0 size=N/A time=00:21:08.89 bitrate=N/A speed=19.7x    frame=30686 fps=472 q=-0.0 size=N/A time=00:21:19.86 bitrate=N/A speed=19.7x    frame=30953 fps=473 q=-0.0 size=N/A time=00:21:30.99 bitrate=N/A speed=19.7x    frame=31220 fps=473 q=-0.0 size=N/A time=00:21:42.13 bitrate=N/A speed=19.7x    frame=31488 fps=473 q=-0.0 size=N/A time=00:21:53.31 bitrate=N/A speed=19.7x    frame=31753 fps=474 q=-0.0 size=N/A time=00:22:04.36 bitrate=N/A speed=19.8x    frame=32035 fps=474 q=-0.0 size=N/A time=00:22:16.12 bitrate=N/A speed=19.8x    frame=32300 fps=475 q=-0.0 size=N/A time=00:22:27.17 bitrate=N/A speed=19.8x    frame=32575 fps=475 q=-0.0 size=N/A time=00:22:38.64 bitrate=N/A speed=19.8x    frame=32821 fps=475 q=-0.0 size=N/A time=00:22:48.90 bitrate=N/A speed=19.8x    frame=33094 fps=475 q=-0.0 size=N/A time=00:23:00.29 bitrate=N/A speed=19.8x    frame=33289 fps=475 q=-0.0 size=N/A time=00:23:08.42 bitrate=N/A speed=19.8x    frame=33445 fps=473 q=-0.0 size=N/A time=00:23:14.93 bitrate=N/A speed=19.7x    frame=33623 fps=472 q=-0.0 size=N/A time=00:23:22.35 bitrate=N/A speed=19.7x    frame=33888 fps=473 q=-0.0 size=N/A time=00:23:33.41 bitrate=N/A speed=19.7x    frame=34180 fps=473 q=-0.0 size=N/A time=00:23:45.59 bitrate=N/A speed=19.7x    frame=34456 fps=474 q=-0.0 size=N/A time=00:23:57.10 bitrate=N/A speed=19.8x    frame=34709 fps=474 q=-0.0 size=N/A time=00:24:07.65 bitrate=N/A speed=19.8x    [Parsed_psnr_10 @ 0000026871bbca80] PSNR y:48.561556 u:50.504341 v:50.077249 average:49.063822 min:42.640103 max:inf
[out#0/null @ 0000026871305b80] video:15006KiB audio:273132KiB subtitle:0KiB other streams:0KiB global headers:0KiB muxing overhead: unknown
frame=34922 fps=474 q=-0.0 Lsize=N/A time=00:24:16.53 bitrate=N/A speed=19.8x    
